#!OML:ASF X:\für Bonn\!DataBase\2005_08_10_Bjorn_Final\c3d\bjorn.ASF
:FULLY-SPECIFIED
:DEGREES
136
root 14.6809 17.4312 -24.6709 173.585 -53.4254 -172.238
lowerback 2.4628 2.7697 4.8959
upperback 10.0602 3.15441 -3.13799
thorax 9.81862 1.87185 -5.95812
lowerneck -5.40614 3.17653 4.53931
upperneck -0.559444 3.94972 -1.97807
head 0.87231 1.933 -1.28361
rclavicle -2.82274e-014 4.6118e-014
rhumerus -48.9556 8.91513 -97.771
rradius 70.595
rwrist 8.24082
rhand -22.9215 26.9332
rfingers 7.12502
rthumb 3.51895 -3.01753
lclavicle -2.82274e-014 4.6118e-014
lhumerus -21.9881 -27.2128 93.4914
lradius 93.1757
lwrist -1.52659
lhand -43.222 -25.7346
lfingers 7.12502
lthumb -16.0721 3.61888
rfemur -17.973 -5.90045 -1.63544
rtibia 93.9013
rfoot -2.62287 11.8979
rtoes -26.4678
lfemur -14.376 -0.615988 -35.3557
ltibia 49.8387
lfoot -26.1023 0.139026
ltoes 12.2626
137
root 14.4685 17.4433 -24.8243 173.552 -54.3965 -171.844
lowerback 2.1936 2.39765 4.7309
upperback 9.99774 2.66008 -2.98316
thorax 9.80506 1.61193 -5.7217
lowerneck -5.59167 3.36038 4.45376
upperneck -0.351446 4.19692 -2.10495
head 0.979641 2.05681 -1.29856
rclavicle -2.38542e-015 4.6118e-014
rhumerus -49.7636 8.67105 -97.1484
rradius 69.9249
rwrist 7.97354
rhand -23.3756 27.3581
rfingers 7.12502
rthumb 3.08037 -2.59941
lclavicle -2.38542e-015 4.6118e-014
lhumerus -20.7872 -27.6035 93.0711
lradius 93.3189
lwrist -1.55885
lhand -43.3753 -25.8473
lfingers 7.12502
lthumb -16.2197 3.49416
rfemur -20.3662 -6.22552 -0.810516
rtibia 94.2547
rfoot -3.3695 12.0958
rtoes -26.6582
lfemur -13.1839 -1.05923 -35.1608
ltibia 49.1144
lfoot -26.225 -0.489194
ltoes 12.5951
138
root 14.2512 17.4619 -24.9765 173.524 -55.3458 -171.434
lowerback 1.8493 2.0287 4.54674
upperback 9.93687 2.16844 -2.81358
thorax 9.84321 1.35318 -5.45876
lowerneck -5.66018 3.54995 4.38865
upperneck -0.217669 4.45612 -2.23155
head 1.04469 2.18615 -1.31805
rclavicle -1.55052e-014 3.65764e-014
rhumerus -50.6677 8.43709 -96.6285
rradius 69.4445
rwrist 7.8244
rhand -23.9249 27.8772
rfingers 7.12502
rthumb 2.54992 -2.08734
lclavicle -1.55052e-014 3.65764e-014
lhumerus -19.8276 -27.9744 92.7914
lradius 93.5243
lwrist -1.69779
lhand -43.6358 -25.9859
lfingers 7.12502
lthumb -16.4706 3.33495
rfemur -22.7113 -6.5062 0.0328383
rtibia 94.2837
rfoot -3.853 12.5014
rtoes -25.6278
lfemur -11.9603 -1.65438 -34.9754
ltibia 48.289
lfoot -26.2293 -1.03449
ltoes 12.8912
139
root 14.0293 17.4911 -25.1272 173.411 -56.3199 -170.919
lowerback 1.48455 1.65171 4.40461
upperback 9.86363 1.66429 -2.62025
thorax 9.88685 1.09176 -5.19759
lowerneck -5.6494 3.74642 4.29665
upperneck -0.0846364 4.72903 -2.27949
head 1.09319 2.32379 -1.30826
rclavicle 2.50469e-014 6.36111e-015
rhumerus -51.5505 8.25121 -96.1509
rradius 69.0678
rwrist 7.7043
rhand -24.4474 28.0998
rfingers 7.12502
rthumb 2.04527 -1.87015
lclavicle 2.50469e-014 6.36111e-015
lhumerus -18.8602 -28.4649 92.3702
lradius 93.7495
lwrist -1.50025
lhand -43.9689 -26.1731
lfingers 7.12502
lthumb -16.7913 3.12084
rfemur -24.9366 -6.81045 0.978761
rtibia 93.9567
rfoot -4.15333 12.9626
rtoes -23.8669
lfemur -10.672 -2.48417 -34.7645
ltibia 47.3448
lfoot -26.1162 -1.38732
ltoes 13.0286
140
root 13.7985 17.5343 -25.2754 173.331 -57.2533 -170.423
lowerback 1.06356 1.29028 4.24391
upperback 9.78663 1.1801 -2.41727
thorax 9.96878 0.839767 -4.91724
lowerneck -5.58878 3.92364 4.05273
upperneck 0.00167434 4.98401 -2.15387
head 1.10684 2.45444 -1.21875
rclavicle 2.46493e-014 -1.27222e-014
rhumerus -52.5316 8.21367 -95.7064
rradius 69.0122
rwrist 7.44385
rhand -24.8958 27.979
rfingers 7.12502
rthumb 1.61218 -1.99469
lclavicle 2.46493e-014 -1.27222e-014
lhumerus -18.0497 -28.9795 92.017
lradius 94.1182
lwrist -1.16127
lhand -44.2051 -26.2308
lfingers 7.12502
lthumb -17.0186 3.04366
rfemur -27.0689 -7.08205 1.94945
rtibia 93.3062
rfoot -4.47797 13.467
rtoes -23.1901
lfemur -9.34966 -3.26779 -34.5713
ltibia 46.2757
lfoot -25.8588 -1.68704
ltoes 12.9655
141
root 13.5617 17.5872 -25.4194 173.182 -58.2057 -169.854
lowerback 0.636841 0.925875 4.1619
upperback 9.69575 0.689472 -2.21891
thorax 10.0488 0.592256 -4.69118
lowerneck -5.50993 4.10142 3.68537
upperneck 0.176293 5.24422 -1.80057
head 1.13266 2.5916 -1.03648
rclavicle 5.56597e-015 -3.89618e-014
rhumerus -53.3764 8.18713 -95.306
rradius 68.9467
rwrist 7.098
rhand -25.4684 27.9295
rfingers 7.12502
rthumb 1.05916 -2.04767
lclavicle 5.56597e-015 -3.89618e-014
lhumerus -17.4005 -29.5426 91.7787
lradius 94.5473
lwrist -0.788382
lhand -44.3973 -26.2001
lfingers 7.12502
lthumb -17.2036 3.05839
rfemur -29.0804 -7.26118 2.99144
rtibia 92.3559
rfoot -4.87611 13.9784
rtoes -23.3292
lfemur -7.98985 -4.02031 -34.3212
ltibia 45.109
lfoot -25.4222 -2.16616
ltoes 13.0727
142
root 13.3197 17.6476 -25.5602 172.934 -59.1449 -169.166
lowerback 0.191584 0.571246 4.16216
upperback 9.60252 0.204739 -1.99842
thorax 10.1463 0.354503 -4.4918
lowerneck -5.30073 4.30031 3.3444
upperneck 0.266992 5.53543 -1.51026
head 1.1115 2.74318 -0.882309
rclavicle -1.67774e-013 -7.95139e-016
rhumerus -54.2115 8.11186 -94.8896
rradius 69.0082
rwrist 6.77548
rhand -26.0696 27.7578
rfingers 7.12502
rthumb 0.478566 -2.22137
lclavicle -1.67774e-013 -7.95139e-016
lhumerus -16.7814 -30.1525 91.4521
lradius 95.0753
lwrist -0.402053
lhand -44.5214 -25.8163
lfingers 7.12502
lthumb -17.323 3.43171
rfemur -30.993 -7.2608 4.11211
rtibia 91.1101
rfoot -5.3246 14.4268
rtoes -23.6402
lfemur -6.64102 -4.66195 -33.9869
ltibia 43.8887
lfoot -24.7612 -2.68521
ltoes 12.9567
143
root 13.0729 17.7142 -25.6974 172.736 -60.0672 -168.532
lowerback -0.240745 0.235532 4.19662
upperback 9.49406 -0.254374 -1.81359
thorax 10.2278 0.133842 -4.35216
lowerneck -5.01112 4.52046 3.11351
upperneck 0.287441 5.85075 -1.30838
head 1.06027 2.9052 -0.777555
rclavicle 1.11319e-014 -2.62396e-014
rhumerus -55.0833 7.92047 -94.489
rradius 69.1205
rwrist 6.50551
rhand -26.5692 27.6928
rfingers 7.12502
rthumb -0.0039694 -2.28698
lclavicle 1.11319e-014 -2.62396e-014
lhumerus -16.3112 -30.7688 91.2032
lradius 95.6848
lwrist -0.201016
lhand -44.5124 -25.2802
lfingers 7.12502
lthumb -17.3144 3.96858
rfemur -32.8286 -7.13904 5.17489
rtibia 89.5674
rfoot -5.8065 14.8217
rtoes -24.4179
lfemur -5.33672 -5.1804 -33.6577
ltibia 42.6496
lfoot -23.8124 -3.41164
ltoes 13.103
144
root 12.8219 17.7874 -25.8309 172.407 -60.9666 -167.779
lowerback -0.636411 -0.125198 4.26496
upperback 9.38547 -0.754364 -1.58446
thorax 10.2867 -0.107132 -4.191
lowerneck -4.74293 4.76002 2.88973
upperneck 0.359449 6.19287 -1.224
head 1.03322 3.07924 -0.710038
rclavicle 3.93594e-014 -1.43125e-014
rhumerus -55.6508 7.62609 -94.0669
rradius 68.9812
rwrist 6.46105
rhand -26.7916 27.8414
rfingers 7.12502
rthumb -0.218854 -2.13818
lclavicle 3.93594e-014 -1.43125e-014
lhumerus -15.8412 -31.2983 90.8773
lradius 96.3224
lwrist 0.0909625
lhand -44.4989 -24.7311
lfingers 7.12502
lthumb -17.3014 4.51882
rfemur -34.513 -6.93745 6.24135
rtibia 87.7125
rfoot -6.3065 15.1375
rtoes -25.3967
lfemur -4.04253 -5.50337 -33.2152
ltibia 41.3993
lfoot -22.6347 -4.22969
ltoes 12.6959
145
root 12.5657 17.8686 -25.9589 172.065 -61.7851 -167.001
lowerback -1.00347 -0.45958 4.38806
upperback 9.24939 -1.22079 -1.36474
thorax 10.3045 -0.327632 -4.07007
lowerneck -4.3983 4.97806 2.79745
upperneck 0.351571 6.50386 -1.33535
head 0.979185 3.23525 -0.729377
rclavicle 5.04913e-014 1.43125e-014
rhumerus -56.2978 7.35785 -93.6022
rradius 68.8658
rwrist 6.35319
rhand -26.7101 28.2589
rfingers 7.12502
rthumb -0.14007 -1.7208
lclavicle 5.04913e-014 1.43125e-014
lhumerus -15.638 -31.7603 90.5399
lradius 97.0791
lwrist 0.220399
lhand -44.452 -24.2052
lfingers 7.12502
lthumb -17.2563 5.04863
rfemur -36.0729 -6.6537 7.23591
rtibia 85.531
rfoot -6.71737 15.3995
rtoes -26.2281
lfemur -2.81492 -5.5279 -32.6818
ltibia 40.1112
lfoot -21.2367 -5.15381
ltoes 11.8438
146
root 12.306 17.9622 -26.0859 171.606 -62.6537 -166.155
lowerback -1.30329 -0.819059 4.52835
upperback 9.12957 -1.7248 -1.14291
thorax 10.2988 -0.566893 -3.96176
lowerneck -4.20943 5.19662 2.808
upperneck 0.422577 6.80769 -1.57337
head 0.985973 3.3861 -0.800576
rclavicle 3.97569e-015 2.94201e-014
rhumerus -56.965 7.1762 -93.1113
rradius 68.8624
rwrist 6.17034
rhand -26.4726 28.7903
rfingers 7.12502
rthumb 0.0893362 -1.18941
lclavicle 3.97569e-015 2.94201e-014
lhumerus -15.4367 -32.0546 90.4909
lradius 97.4407
lwrist -0.0349436
lhand -44.2855 -24.0188
lfingers 7.12502
lthumb -17.0961 5.24903
rfemur -37.3335 -6.37048 8.16886
rtibia 82.9985
rfoot -6.9694 15.4698
rtoes -27.0048
lfemur -1.57185 -5.31069 -32.0084
ltibia 38.7707
lfoot -19.4807 -6.5213
ltoes 11.8372
